<svg xmlns="http://www.w3.org/2000/svg" width="1200" height="630" viewBox="0 0 1200 630" role="img" aria-labelledby="title desc">
  <title id="title">Somos Eternos</title>
  <desc id="desc">Imagem de compartilhamento do Somos Eternos</desc>
  <defs>
    <linearGradient id="bg" x1="0" y1="0" x2="1" y2="1">
      <stop offset="0" stop-color="#fff8f6"/>
      <stop offset="0.45" stop-color="#f7e2dc"/>
      <stop offset="1" stop-color="#fffaf4"/>
    </linearGradient>
    <linearGradient id="accent" x1="0" y1="0" x2="1" y2="1">
      <stop offset="0" stop-color="#bc4257"/>
      <stop offset="1" stop-color="#c4614a"/>
    </linearGradient>
    <filter id="shadow" x="-20%" y="-20%" width="140%" height="140%">
      <feDropShadow dx="0" dy="20" stdDeviation="24" flood-color="#59252d" flood-opacity="0.18"/>
    </filter>
  </defs>
  <rect width="1200" height="630" fill="url(#bg)"/>
  <path d="M0 525C178 456 310 554 492 501C647 455 700 336 865 350C997 361 1086 445 1200 401V630H0Z" fill="#f0c9bf"/>
  <g filter="url(#shadow)">
    <rect x="740" y="90" width="245" height="315" rx="18" fill="#fff"/>
    <rect x="762" y="112" width="201" height="225" rx="10" fill="#d7a59d"/>
    <path d="M772 320C815 262 869 281 902 238C925 208 944 205 963 220V337H762V320Z" fill="#bc4257" opacity="0.35"/>
    <text x="785" y="372" fill="#684448" font-family="Georgia, serif" font-size="26">a nossa historia</text>
  </g>
  <g filter="url(#shadow)" transform="rotate(-8 652 323)">
    <rect x="520" y="150" width="230" height="295" rx="18" fill="#fff"/>
    <rect x="541" y="171" width="188" height="207" rx="10" fill="#c4614a"/>
    <circle cx="635" cy="274" r="58" fill="#fff4ef" opacity="0.55"/>
    <text x="560" y="414" fill="#684448" font-family="Georgia, serif" font-size="24">para sempre</text>
  </g>
  <g>
    <text x="104" y="138" fill="#bc4257" font-family="Arial, sans-serif" font-size="24" font-weight="700" letter-spacing="4">SOMOS ETERNOS</text>
    <text x="100" y="253" fill="#2d2023" font-family="Georgia, serif" font-size="82" font-weight="700">A historia de</text>
    <text x="100" y="344" fill="#2d2023" font-family="Georgia, serif" font-size="82" font-weight="700">voces, contando</text>
    <text x="100" y="435" fill="url(#accent)" font-family="Georgia, serif" font-size="82" font-weight="700">em tempo real.</text>
    <text x="104" y="505" fill="#684448" font-family="Arial, sans-serif" font-size="30">Fotos, texto, musica e contador ao vivo em uma pagina para compartilhar.</text>
  </g>
</svg>
